<svg width="24" height="22" viewBox="0 0 24 22" fill="none" xmlns="http://www.w3.org/2000/svg">
<path d="M1 1H4.353V14.6538H18.5423L23.0932 4.48H5.95946" stroke="white" stroke-width="1.5" stroke-linecap="round" stroke-linejoin="round"/>
<path d="M7.71863 18.9883C7.71854 19.3311 7.61681 19.6662 7.42631 19.9512C7.2358 20.2361 6.96507 20.4583 6.64834 20.5894C6.33161 20.7206 5.9831 20.7548 5.64688 20.6879C5.31067 20.621 5.00184 20.456 4.75944 20.2136C4.51704 19.9712 4.35195 19.6623 4.28505 19.3261C4.21815 18.9899 4.25244 18.6414 4.38359 18.3247C4.51473 18.0079 4.73685 17.7372 5.02184 17.5467C5.30684 17.3562 5.64193 17.2545 5.98474 17.2544C6.21245 17.2543 6.43795 17.2991 6.64834 17.3862C6.85873 17.4734 7.04989 17.6011 7.21091 17.7621C7.37193 17.9231 7.49964 18.1143 7.58676 18.3247C7.67388 18.535 7.71868 18.7606 7.71863 18.9883Z" stroke="white" stroke-width="1.5" stroke-linecap="round" stroke-linejoin="round"/>
<path d="M16.3876 18.9883C16.3876 19.3312 16.2859 19.6664 16.0954 19.9516C15.9049 20.2367 15.634 20.459 15.3172 20.5902C15.0003 20.7214 14.6517 20.7557 14.3153 20.6888C13.979 20.6218 13.67 20.4567 13.4276 20.2142C13.1851 19.9716 13.02 19.6626 12.9531 19.3263C12.8863 18.9899 12.9207 18.6413 13.052 18.3244C13.1833 18.0076 13.4056 17.7368 13.6908 17.5464C13.976 17.3559 14.3112 17.2543 14.6542 17.2544C14.8819 17.2544 15.1073 17.2992 15.3177 17.3863C15.528 17.4735 15.7191 17.6012 15.8801 17.7622C16.0411 17.9233 16.1687 18.1144 16.2558 18.3248C16.3429 18.5351 16.3877 18.7606 16.3876 18.9883Z" stroke="white" stroke-width="1.5" stroke-linecap="round" stroke-linejoin="round"/>
</svg>
