<svg width="21" height="17" viewBox="0 0 21 17" fill="none" xmlns="http://www.w3.org/2000/svg">
<path fill-rule="evenodd" clip-rule="evenodd" d="M2.45689e-06 7.03825H20.1093V11.1263C20.1094 12.0176 20.1094 12.7856 20.0267 13.4006C19.9381 14.0597 19.7383 14.6915 19.2258 15.2039C18.7134 15.7164 18.0816 15.9162 17.4225 16.0049C16.8074 16.0875 16.0395 16.0875 15.1481 16.0874H4.9611C4.06979 16.0875 3.30182 16.0875 2.68681 16.0049C2.02772 15.9162 1.39594 15.7164 0.883494 15.2039C0.371039 14.6915 0.171213 14.0597 0.0826013 13.4006C-8.80377e-05 12.7856 -4.77647e-05 12.0176 2.45689e-06 11.1263V7.03825ZM3.0164 10.0546C3.0164 9.49932 3.46656 9.04918 4.02186 9.04918H6.03279C6.58809 9.04918 7.03825 9.49932 7.03825 10.0546C7.03825 10.61 6.58809 11.0601 6.03279 11.0601H4.02186C3.46656 11.0601 3.0164 10.61 3.0164 10.0546ZM8.04372 10.0546C8.04372 9.49932 8.49386 9.04918 9.04918 9.04918H11.0601C11.6154 9.04918 12.0656 9.49932 12.0656 10.0546C12.0656 10.61 11.6154 11.0601 11.0601 11.0601H9.04918C8.49386 11.0601 8.04372 10.61 8.04372 10.0546Z" fill="#95989A"/>
<path d="M20.1093 5.02733V4.96115C20.1094 4.06981 20.1094 3.30182 20.0267 2.68681C19.9381 2.02772 19.7383 1.39594 19.2258 0.883494C18.7134 0.371039 18.0816 0.171213 17.4225 0.0826014C16.8074 -8.79103e-05 16.0395 -4.78764e-05 15.1481 2.46507e-06H4.96114C4.06981 -4.78764e-05 3.30183 -8.79103e-05 2.68682 0.0826014C2.02772 0.171213 1.39594 0.371039 0.883494 0.883484C0.371039 1.39594 0.171213 2.02772 0.0826013 2.68681C-8.80377e-05 3.30183 -4.77647e-05 4.06982 2.45689e-06 4.96117V5.02732L20.1093 5.02733Z" fill="#95989A"/>
</svg>
