<svg width="14" height="14" viewBox="0 0 14 14" fill="none" xmlns="http://www.w3.org/2000/svg">
<path d="M13.9285 5.2926C13.8766 5.1376 13.7423 5.02467 13.5808 4.99982L9.29197 4.34448L7.37034 0.25071C7.2984 0.097668 7.1445 0 6.97555 0C6.8066 0 6.65292 0.097668 6.58076 0.25071L4.65913 4.34448L0.37029 5.00004C0.208756 5.02467 0.0746887 5.13782 0.0225878 5.29282C-0.0292951 5.44761 0.00972609 5.61853 0.123956 5.7356L3.23998 8.93096L2.50359 13.4446C2.47656 13.6094 2.5461 13.7753 2.68279 13.8713C2.75778 13.9242 2.84563 13.951 2.9337 13.951C3.00607 13.951 3.07888 13.9327 3.14472 13.8965L6.97533 11.7777L10.8059 13.8965C10.8718 13.9327 10.9446 13.951 11.017 13.951C11.105 13.951 11.1931 13.9242 11.2679 13.8713C11.4046 13.7753 11.4741 13.6094 11.4471 13.4446L10.7107 8.93096L13.8267 5.7356C13.9412 5.61831 13.9804 5.44739 13.9285 5.2926Z" fill="#FCAF17"/>
</svg>
