<svg width="48" height="57" viewBox="0 0 48 57" fill="none" xmlns="http://www.w3.org/2000/svg">
<path d="M32.552 26.4298C36.1818 23.7699 38.5455 19.465 38.5455 14.6154C38.5455 6.55643 32.0204 -1.52588e-05 24 -1.52588e-05C15.9796 -1.52588e-05 9.45453 6.55643 9.45453 14.6154C9.45453 19.465 11.8181 23.7699 15.448 26.4298C6.42482 29.8994 0 38.69 0 48.9615C0 53.394 3.58878 57 8 57H40C44.4112 57 48 53.394 48 48.9615C48 38.69 41.5752 29.8994 32.552 26.4298ZM13.8182 14.6154C13.8182 8.97414 18.3858 4.38464 24 4.38464C29.6142 4.38464 34.1818 8.97414 34.1818 14.6154C34.1818 20.2566 29.6142 24.8462 24 24.8462C18.3858 24.8462 13.8182 20.2566 13.8182 14.6154ZM40 52.6153H8C5.99493 52.6153 4.36369 50.9762 4.36369 48.9614C4.36369 38.0818 13.1724 29.2306 24.0001 29.2306C34.8278 29.2306 43.6365 38.0817 43.6365 48.9614C43.6364 50.9762 42.0052 52.6153 40 52.6153Z" fill="white"/>
</svg>
