<svg width="20" height="20" viewBox="0 0 20 20" fill="none" xmlns="http://www.w3.org/2000/svg">
<path d="M19.7141 8.06557L10.5331 0.196721C10.3908 0.0740984 10.2039 0 10 0C9.79607 0 9.60918 0.0747541 9.46557 0.198033L9.46689 0.197377L0.286557 8.06623C0.11082 8.21705 0 8.44 0 8.68787V8.68852V19.1803C0 19.6328 0.367213 20 0.819672 20H19.1803C19.6328 19.9993 19.9993 19.6328 20 19.1803V8.68852C20 8.44 19.8898 8.2177 19.7154 8.06688L19.7141 8.06623V8.06557ZM7.54098 18.36V15.2452C7.54098 13.8872 8.64197 12.7862 10 12.7862C11.358 12.7862 12.459 13.8872 12.459 15.2452V18.36H7.54098ZM18.3607 18.36H14.0984V15.2452C14.0984 12.9816 12.2636 11.1469 10 11.1469C7.73639 11.1469 5.90164 12.9816 5.90164 15.2452V18.36H1.63934V9.06492L10 1.89836L18.3607 9.06492V18.36Z" fill="#043560"/>
</svg>
