<svg width="20" height="20" viewBox="0 0 20 20" fill="none" xmlns="http://www.w3.org/2000/svg">
<path d="M18.9369 7.74759L10.1179 0.188966C9.98117 0.0711771 9.80165 0 9.60575 0C9.40986 0 9.23034 0.071807 9.0924 0.190225L9.09366 0.189596L0.27526 7.74822C0.106451 7.8931 0 8.10726 0 8.34535V8.34598V18.4242C0 18.8588 0.352736 19.2115 0.787357 19.2115H18.4242C18.8588 19.2109 19.2109 18.8588 19.2115 18.4242V8.34598C19.2115 8.10726 19.1057 7.89373 18.9381 7.74885L18.9369 7.74822V7.74759ZM7.24368 17.6362V14.6442C7.24368 13.3397 8.30126 12.2821 9.60575 12.2821C10.9102 12.2821 11.9678 13.3397 11.9678 14.6442V17.6362H7.24368ZM17.6368 17.6362H13.5425V14.6442C13.5425 12.4698 11.7801 10.7074 9.60575 10.7074C7.43139 10.7074 5.66897 12.4698 5.66897 14.6442V17.6362H1.57471V8.70754L9.60575 1.82352L17.6368 8.70754V17.6362Z" fill="#043560"/>
<path d="M18.9369 7.74759L10.1179 0.188966C9.98117 0.0711771 9.80165 0 9.60575 0C9.40986 0 9.23034 0.071807 9.0924 0.190225L9.09366 0.189596L0.27526 7.74822C0.106451 7.8931 0 8.10726 0 8.34535V8.34598V18.4242C0 18.8588 0.352736 19.2115 0.787357 19.2115H18.4242C18.8588 19.2109 19.2109 18.8588 19.2115 18.4242V8.34598C19.2115 8.10726 19.1057 7.89373 18.9381 7.74885L18.9369 7.74822V7.74759ZM7.24368 17.6362V14.6442C7.24368 13.3397 8.30126 12.2821 9.60575 12.2821C10.9102 12.2821 11.9678 13.3397 11.9678 14.6442V17.6362H7.24368ZM17.6368 17.6362H13.5425V14.6442C13.5425 12.4698 11.7801 10.7074 9.60575 10.7074C7.43139 10.7074 5.66897 12.4698 5.66897 14.6442V17.6362H1.57471V8.70754L9.60575 1.82352L17.6368 8.70754V17.6362Z" fill="white"/>
</svg>
