<svg width="22" height="26" viewBox="0 0 22 26" fill="none" xmlns="http://www.w3.org/2000/svg">
<path d="M7.68108 22.5427C7.77415 22.6339 7.86611 22.7237 7.95677 22.8118C7.97884 22.8332 8.00084 22.8544 8.02274 22.8753M7.68108 22.5427C4.47023 19.396 -0.0742083 14.4434 1.22892 8.6353C3.52595 -1.55294 18.4858 -1.54118 20.7711 8.64707C22.112 14.6235 17.2614 19.6824 14.0317 22.8118C11.7099 25.0727 10.338 25.0939 8.02274 22.8753M7.68108 22.5427L8.02274 22.8753" stroke="#95989A" stroke-width="2"/>
<path d="M11 12.7647C12.6243 12.7647 13.9412 11.4479 13.9412 9.82355C13.9412 8.19918 12.6243 6.88237 11 6.88237C9.3756 6.88237 8.05879 8.19918 8.05879 9.82355C8.05879 11.4479 9.3756 12.7647 11 12.7647Z" stroke="#95989A" stroke-width="2"/>
</svg>
