<svg width="18" height="21" viewBox="0 0 18 21" fill="none" xmlns="http://www.w3.org/2000/svg">
<path d="M11.876 9.59634C13.2003 8.63054 14.0627 7.06751 14.0627 5.30665C14.0627 2.38055 11.6821 -1.52588e-05 8.75599 -1.52588e-05C5.82989 -1.52588e-05 3.44932 2.38055 3.44932 5.30665C3.44932 7.06751 4.31164 8.63054 5.63594 9.59634C2.34398 10.8561 0 14.0478 0 17.7773C0 19.3867 1.30931 20.696 2.91866 20.696H14.5933C16.2027 20.696 17.512 19.3867 17.512 17.7773C17.512 14.0478 15.168 10.8561 11.876 9.59634ZM5.04134 5.30665C5.04134 3.25839 6.70773 1.592 8.75599 1.592C10.8042 1.592 12.4706 3.25839 12.4706 5.30665C12.4706 7.35491 10.8042 9.02134 8.75599 9.02134C6.70773 9.02134 5.04134 7.35491 5.04134 5.30665ZM14.5933 19.104H2.91866C2.18715 19.104 1.59202 18.5088 1.59202 17.7773C1.59202 13.827 4.80572 10.6133 8.75603 10.6133C12.7063 10.6133 15.92 13.827 15.92 17.7773C15.92 18.5088 15.3249 19.104 14.5933 19.104Z" fill="#043560"/>
</svg>
