<svg width="20" height="21" viewBox="0 0 20 21" fill="none" xmlns="http://www.w3.org/2000/svg">
<path d="M6.86783 15.7778H3.32073C2.00614 15.7778 1.34886 15.7778 1.21056 15.6747C1.05519 15.5588 1.01723 15.4904 1.0004 15.296C0.985433 15.123 1.38828 14.4569 2.194 13.1247C3.02588 11.7493 3.73226 9.74654 3.73226 6.91111C3.73226 5.34339 4.3926 3.83988 5.56802 2.73132C6.74345 1.62278 8.33767 1 9.99998 1C11.6623 1 13.2565 1.62278 14.4319 2.73132C15.6074 3.83988 16.2677 5.34339 16.2677 6.91111C16.2677 9.74654 16.9741 11.7493 17.806 13.1247C18.6116 14.4569 19.0145 15.123 18.9996 15.296C18.9828 15.4904 18.9448 15.5588 18.7894 15.6747C18.6511 15.7778 17.9938 15.7778 16.6793 15.7778H13.1338M6.86783 15.7778L6.86612 16.8333C6.86612 18.5823 8.26925 20 9.99998 20C11.7308 20 13.1338 18.5823 13.1338 16.8333V15.7778M6.86783 15.7778H13.1338" stroke="#043560" stroke-width="2" stroke-linecap="round" stroke-linejoin="round"/>
</svg>
