<svg width="22" height="22" viewBox="0 0 22 22" fill="none" xmlns="http://www.w3.org/2000/svg">
<path d="M17.0234 16.697C16.1731 16.7001 15.357 16.3632 14.7564 15.7613L11.4819 12.4846C11.2412 12.2546 10.8622 12.2546 10.6215 12.4846L7.33591 15.7703C6.73575 16.3731 5.91955 16.7109 5.06895 16.7087H4.42787L8.57728 20.8581C9.87305 22.1512 11.971 22.1512 13.2668 20.8581L17.4245 16.6997L17.0234 16.697Z" fill="#707070"/>
<path d="M5.06965 5.11743C5.92026 5.11515 6.73648 5.45305 7.33661 6.05588L10.6222 9.34221C10.86 9.57925 11.2448 9.57925 11.4825 9.34221L14.7564 6.06833C15.3561 5.46472 16.1725 5.12647 17.0234 5.12918H17.4176L13.2599 0.971484C11.965 -0.323828 9.8652 -0.323828 8.57036 0.971484L4.42787 5.11743H5.06965Z" fill="#707070"/>
<path d="M20.8565 8.56899L18.344 6.05652C18.2873 6.07969 18.2268 6.09189 18.1656 6.09248H17.0231C16.4286 6.09397 15.8587 6.33009 15.4374 6.74947L12.1635 10.0213C11.5496 10.6341 10.5554 10.6341 9.94147 10.0213L6.65514 6.73703C6.23389 6.31738 5.66399 6.08102 5.06938 6.07935H3.66688C3.60908 6.07805 3.55196 6.06657 3.49814 6.04546L0.96977 8.56899C-0.323256 9.86476 -0.323257 11.9627 0.96977 13.2585L3.49261 15.7813C3.54631 15.7598 3.60351 15.7483 3.66135 15.7474H5.06938C5.66397 15.7457 6.23385 15.5094 6.65514 15.0898L9.94078 11.8041C10.5348 11.2108 11.5701 11.2108 12.1635 11.8041L15.4374 15.0773C15.8587 15.4967 16.4286 15.7328 17.0231 15.7343H18.1656C18.2268 15.7347 18.2874 15.747 18.344 15.7703L20.8565 13.2578C22.1518 11.963 22.1518 9.86382 20.8565 8.56899Z" fill="#707070"/>
</svg>
