<svg width="28" height="26" viewBox="0 0 28 26" fill="none" xmlns="http://www.w3.org/2000/svg">
<path d="M4.3725 7C3.118 7.87851 2.10091 8.81789 1.32153 9.64583C-0.44051 11.5176 -0.440508 14.3149 1.32153 16.1867C3.60678 18.6144 7.93556 22 14.3005 22C16.0148 22 17.5813 21.7545 19 21.3482L16.8002 19.1904C16.0119 19.328 15.1787 19.4046 14.3005 19.4046C8.96496 19.4046 5.28906 16.5757 3.26543 14.426C2.43936 13.5485 2.43936 12.284 3.26543 11.4065C4.03123 10.593 5.03365 9.68225 6.27309 8.86431L4.3725 7Z" fill="#FCAF17"/>
<path d="M9.05759 12C9.01965 12.2539 9 12.5137 9 12.7782C9 15.6621 11.3379 18 14.2218 18C14.4862 18 14.7461 17.9803 15 17.9424L9.05759 12Z" fill="#FCAF17"/>
<path d="M18.957 14L13 9.03584C13.2225 9.01219 13.4493 9 13.6796 9C16.618 9 19 10.985 19 13.4336C19 13.6255 18.9854 13.8145 18.957 14Z" fill="#FCAF17"/>
<path d="M21.7602 17.1321C22.9777 16.322 23.9647 15.4246 24.7215 14.6217C25.5508 13.7419 25.5508 12.474 24.7215 11.5942C22.6899 9.43877 18.9992 6.60227 13.6424 6.60227C12.7915 6.60227 11.9828 6.67382 11.216 6.80284L9 4.63212C10.4043 4.23759 11.9518 4 13.6424 4C20.0327 4 24.3788 7.39473 26.6732 9.8288C28.4423 11.7056 28.4423 14.5103 26.6732 16.3871C25.9026 17.2047 24.9004 18.1307 23.667 19L21.7602 17.1321Z" fill="#FCAF17"/>
<path d="M1.37007 2.15687C0.876645 1.66346 0.876645 0.863475 1.37007 0.370066C1.86347 -0.123355 2.66346 -0.123355 3.15687 0.370066L26.6299 23.8432C27.1234 24.3366 27.1234 25.1366 26.6299 25.63C26.1365 26.1233 25.3365 26.1233 24.8431 25.63L1.37007 2.15687Z" fill="#FCAF17"/>
</svg>
