<svg width="29" height="19" viewBox="0 0 29 19" fill="none" xmlns="http://www.w3.org/2000/svg">
<path fill-rule="evenodd" clip-rule="evenodd" d="M14.006 13.6119C16.5119 13.6119 18.5433 11.5805 18.5433 9.07459C18.5433 6.56871 16.5119 4.53729 14.006 4.53729C11.5001 4.53729 9.46869 6.56871 9.46869 9.07459C9.46869 11.5805 11.5001 13.6119 14.006 13.6119ZM14.006 11.0119C12.9361 11.0119 12.0687 10.1445 12.0687 9.07459C12.0687 8.0047 12.9361 7.13729 14.006 7.13729C15.0759 7.13729 15.9433 8.0047 15.9433 9.07459C15.9433 10.1445 15.0759 11.0119 14.006 11.0119Z" fill="#FCAF17"/>
<path fill-rule="evenodd" clip-rule="evenodd" d="M14.0133 0C7.77615 0 3.53431 3.3823 1.29495 5.80746C-0.431693 7.67737 -0.431692 10.4718 1.29495 12.3417C3.53431 14.767 7.77615 18.1492 14.0133 18.1492C20.2504 18.1492 24.4922 14.767 26.7316 12.3417C28.4582 10.4718 28.4582 7.67737 26.7316 5.80746C24.4922 3.3823 20.2504 0 14.0133 0ZM3.19982 7.5664C5.1828 5.41886 8.78487 2.59274 14.0133 2.59274C19.2417 2.59274 22.8438 5.41886 24.8267 7.5664C25.6361 8.44301 25.6361 9.70619 24.8267 10.5828C22.8438 12.7304 19.2417 15.5565 14.0133 15.5565C8.78487 15.5565 5.1828 12.7304 3.19982 10.5828C2.39034 9.70619 2.39034 8.44301 3.19982 7.5664Z" fill="#FCAF17"/>
</svg>
