<svg width="136" height="191" viewBox="0 0 136 191" fill="none" xmlns="http://www.w3.org/2000/svg">
<path d="M0 16C0 7.16344 7.16344 0 16 0H120C128.837 0 136 7.16344 136 16V175C136 183.837 128.837 191 120 191H16C7.16344 191 0 183.837 0 175V16Z" fill="#D1D3D4"/>
<path fill-rule="evenodd" clip-rule="evenodd" d="M106.5 129C106.5 132.036 104.036 134.5 101 134.5H86.788L66.526 113.971L90 90.4973L106.5 106.997V129ZM35 134.5C31.964 134.5 29.5 132.036 29.5 129V126.418L51.3488 106.849L79.0028 134.5H35ZM46 63C52.0748 63 57 67.9253 57 74C57 80.0748 52.0748 85 46 85C39.9253 85 35 80.0748 35 74C35 67.9253 39.9253 63 46 63ZM101 52H35C28.9252 52 24 56.9252 24 63V129C24 135.075 28.9252 140 35 140H101C107.075 140 112 135.075 112 129V63C112 56.9252 107.075 52 101 52ZM46 79.5C49.036 79.5 51.5 77.036 51.5 74C51.5 70.964 49.036 68.5 46 68.5C42.964 68.5 40.5 70.964 40.5 74C40.5 77.036 42.964 79.5 46 79.5Z" fill="#95989A"/>
</svg>
