<svg width="84" height="84" viewBox="0 0 84 84" fill="none" xmlns="http://www.w3.org/2000/svg">
<path d="M0 16C0 7.16344 7.16344 0 16 0H68C76.8366 0 84 7.16344 84 16V68C84 76.8366 76.8366 84 68 84H16C7.16344 84 0 76.8366 0 68V16Z" fill="#D9D9D9"/>
<path fill-rule="evenodd" clip-rule="evenodd" d="M62.0656 59.419C62.0656 61.0014 60.7814 62.2856 59.1991 62.2856H51.792L41.2317 51.5863L53.4661 39.3519L62.0656 47.9515V59.419ZM24.8008 62.2856C23.2185 62.2856 21.9343 61.0014 21.9343 59.419V58.0732L33.3216 47.8741L47.7344 62.2856H24.8008ZM30.5339 25.0207C33.6999 25.0207 36.2669 27.5877 36.2669 30.7538C36.2669 33.9199 33.6999 36.4868 30.5339 36.4868C27.3678 36.4868 24.8008 33.9199 24.8008 30.7538C24.8008 27.5877 27.3678 25.0207 30.5339 25.0207ZM59.1991 19.2877H24.8008C21.6347 19.2877 19.0677 21.8547 19.0677 25.0207V59.419C19.0677 62.5851 21.6347 65.1521 24.8008 65.1521H59.1991C62.3652 65.1521 64.9322 62.5851 64.9322 59.419V25.0207C64.9322 21.8547 62.3652 19.2877 59.1991 19.2877ZM30.5339 33.6203C32.1162 33.6203 33.4004 32.3361 33.4004 30.7538C33.4004 29.1715 32.1162 27.8873 30.5339 27.8873C28.9515 27.8873 27.6673 29.1715 27.6673 30.7538C27.6673 32.3361 28.9515 33.6203 30.5339 33.6203Z" fill="#95989A"/>
</svg>
