<svg width="96" height="42" viewBox="0 0 96 42" fill="none" xmlns="http://www.w3.org/2000/svg">
<path d="M18.8928 24.9975C16.9075 26.8781 14.8013 28.8544 12.7277 30.8606C12.4838 31.0969 12.3475 31.4981 12.2822 31.845C12.1421 32.6081 11.5142 33.0637 10.7462 32.8856C10.0896 32.7319 9.75167 31.8562 10.1933 31.2206C10.5446 30.7144 11.0323 30.2962 11.4778 29.8537C13.0234 28.3181 14.5709 26.7844 16.1299 25.26C16.4506 24.9469 16.4659 24.7406 16.1434 24.3788C15.3869 23.5294 14.4691 23.205 13.3402 23.2256C11.4931 23.2594 9.64224 23.1637 7.79904 23.2481C5.16288 23.37 3.35424 21.48 2.47104 19.6556C1.79136 18.2531 2.05248 16.755 3.12768 15.6056C5.0112 13.5975 6.95616 11.6325 8.98752 9.76875C10.679 8.21625 13.6915 8.99812 14.279 11.1262C14.4998 11.9269 14.5056 12.8306 14.3962 13.6612C14.256 14.7281 14.5037 15.5269 15.3043 16.2844C17.5642 18.4219 19.7645 20.6175 21.9898 22.7887C22.656 23.4394 22.9075 24.2587 22.9152 25.14C22.9363 27.5325 22.9517 29.9269 22.9075 32.3194C22.8845 33.5512 23.1398 34.6481 24.0979 35.4956C24.9274 36.2269 25.7126 37.0519 26.665 37.5881C27.7536 38.2012 28.9478 37.9987 29.879 37.125C31.7357 35.3812 33.5386 33.5812 35.3894 31.8281C36.0134 31.2375 36.5894 30.6619 36.7814 29.7806C37.2096 27.8119 35.4758 26.1469 33.959 26.1206C32.4826 26.0944 31.0061 26.0569 29.5277 26.0269C29.065 26.0175 28.7654 25.8281 28.7117 25.3519C28.6637 24.9131 28.9094 24.6112 29.3126 24.6169C31.2211 24.645 33.143 24.4106 35.0323 24.8194C36.6662 25.1737 38.1984 26.9362 38.4019 28.5937C38.5958 30.1744 38.1523 31.4962 36.9658 32.6269C35.1725 34.3369 33.4195 36.0881 31.6858 37.8562C30.5626 39.0019 29.2358 39.6 27.6115 39.525C26.7053 39.4837 25.8336 39.2437 25.1616 38.6437C24.2189 37.8019 23.3069 36.9187 22.4678 35.9812C21.7114 35.1356 21.4906 34.0462 21.4771 32.9531C21.4464 30.435 21.4426 27.9169 21.4771 25.3988C21.4867 24.6563 21.2294 24.1181 20.6995 23.6081C18.407 21.4088 16.1683 19.1569 13.8547 16.9819C12.9235 16.1062 12.6739 15.1237 12.839 13.9369C12.9139 13.3912 12.935 12.8287 12.887 12.2812C12.8294 11.6212 12.5779 11.0119 11.8502 10.7906C11.0534 10.5487 10.2989 10.635 9.6768 11.2406C8.35776 12.525 7.03872 13.8131 5.72544 15.1031C5.31456 15.5081 4.90368 15.915 4.51776 16.3444C3.456 17.5256 3.5712 19.0594 4.62528 20.2294C5.57952 21.2887 6.70848 21.6394 8.1024 21.6188C10.201 21.5888 12.3034 21.6394 14.4019 21.7219C15.3907 21.7594 16.2355 22.2337 16.9229 22.9275C17.5584 23.5669 18.1651 24.2306 18.8928 24.9975Z" fill="url(#paint0_linear_49_991)"/>
<path d="M22.1242 21.2831C22.1242 18.8044 22.1453 16.3781 22.1146 13.9556C22.1011 12.9525 22.4525 12.1275 23.0976 11.3756C23.4221 10.9969 23.7658 10.6069 23.9789 10.1663C25.1098 7.83376 24.649 4.92001 21.4656 4.10063C19.6109 3.62251 17.5066 5.28001 17.4125 7.15126C17.3453 8.52001 17.7658 9.61313 18.8294 10.4869C19.3517 10.9163 19.5552 11.4544 19.5283 12.135C19.4822 13.3294 19.4995 14.5275 19.5245 15.7238C19.536 16.2394 19.2422 16.425 18.8064 16.4738C18.3859 16.5225 17.9578 16.1625 17.9578 15.75C17.9597 14.8238 18.0442 13.8956 17.9981 12.9731C17.975 12.5025 17.8464 11.9756 17.5853 11.5913C16.9766 10.6931 16.2816 9.87376 15.9418 8.80126C15.0278 5.91751 17.543 2.81251 20.4902 2.47688C23.136 2.17688 25.7491 4.74938 26.0218 6.84001C26.2906 8.88563 25.9123 10.665 24.4896 12.2063C23.9174 12.825 23.6371 13.5206 23.6736 14.385C23.7312 15.7388 23.689 17.0963 23.689 18.5719C23.9155 18.4238 24.0845 18.345 24.2131 18.225C24.7622 17.7019 25.296 17.1638 25.8413 16.635C26.2022 16.2863 26.3155 15.8738 26.304 15.3769C26.2694 13.6988 27.0182 12.3788 28.4198 11.46C29.6928 10.6256 31.0848 10.7663 32.4902 11.1713C33.479 11.4563 34.08 12.21 34.7693 12.8513C35.7466 13.7606 36.6586 14.7375 37.6262 15.6563C39.2275 17.1788 39.0067 20.2294 37.5878 21.72C36.5933 22.7644 35.3741 23.2294 33.9437 23.2313C32.1139 23.235 30.2861 23.2444 28.4563 23.2275C27.2314 23.2163 26.3539 23.7469 25.8317 24.8006C25.4304 25.6088 25.584 26.3944 26.3962 27.1988C27.408 28.2 28.4218 29.1975 29.4605 30.1706C29.6448 30.345 29.952 30.4669 30.2093 30.4819C31.0637 30.5306 31.5955 30.9788 31.6934 31.8113C31.7626 32.4056 31.2672 33.1838 30.6701 33.2888C29.8733 33.4275 28.8749 33.2831 28.7424 32.4319C28.5427 31.1494 27.5923 30.4856 26.7917 29.6606C26.016 28.8619 25.177 28.095 24.5491 27.1913C23.6755 25.935 24.0058 24.1275 25.0771 23.0175C26.0486 22.0125 27.2179 21.555 28.6195 21.5981C30.1517 21.645 31.6858 21.72 33.216 21.6919C33.9206 21.6788 34.6675 21.555 35.3165 21.2963C37.1328 20.5688 37.7242 17.9419 36.3341 16.6631C35.0592 15.4913 33.8842 14.2144 32.592 13.0631C31.7453 12.3075 30.6701 12.2213 29.6333 12.6788C28.5504 13.1569 27.9245 14.0344 27.984 15.2063C28.0339 16.2113 27.7306 16.9556 26.9626 17.6438C25.8739 18.6188 24.8966 19.7119 23.8618 20.745C23.1283 21.48 23.1206 21.4725 22.1242 21.2831Z" fill="url(#paint1_linear_49_991)"/>
<path d="M9.12959 24.6C9.97055 24.6 10.8134 24.5813 11.6544 24.6075C12.0518 24.6206 12.5261 24.5887 12.4973 25.2262C12.4723 25.77 12.2726 26.0063 11.641 26.0138C10.1242 26.0306 8.60543 26.025 7.08671 26.0231C5.62751 26.0212 4.04159 27.3581 3.95135 28.7775C3.89375 29.6756 4.15103 30.5381 4.82495 31.2131C6.58175 32.9756 8.36159 34.7175 10.1069 36.4931C11.0726 37.4756 12.2208 37.7831 13.5302 37.4494C13.9834 37.3331 14.4461 37.0744 14.7859 36.7594C15.6326 35.9775 16.4083 35.1244 17.2147 34.3013C17.7216 33.7856 17.9098 33.1406 17.9539 32.4563C18.0115 31.5675 18.0211 30.675 18.0653 29.7844C18.0806 29.4844 18.1114 29.1788 18.1824 28.8881C18.2822 28.4813 18.5798 28.2806 19.0003 28.365C19.3651 28.4381 19.561 28.6406 19.5418 29.0738C19.4976 30.0713 19.4918 31.0744 19.5245 32.0738C19.5706 33.4613 19.1194 34.6613 18.1498 35.655C17.2723 36.5531 16.3565 37.4156 15.431 38.2669C14.5037 39.1181 13.3344 39.1388 12.1517 39.1275C11.0592 39.1163 10.1837 38.6738 9.43871 37.9481C7.56863 36.1275 5.69471 34.3069 3.85151 32.4619C2.53823 31.1475 1.96223 29.5988 2.58815 27.7875C3.16607 26.1169 5.14751 24.4556 7.04831 24.5981C7.73567 24.6431 8.43455 24.6 9.12959 24.6Z" fill="url(#paint2_linear_49_991)"/>
<path d="M61.8701 23.2331C61.0675 23.2331 60.4147 23.2538 59.7638 23.2181C59.6141 23.2088 59.4336 23.0269 59.3376 22.8806C58.7385 21.9713 58.153 21.0525 57.5789 20.1281C57.3523 19.7625 57.072 19.5544 56.6093 19.5731C55.9737 19.5975 55.3363 19.5788 54.5952 19.5788C54.5952 20.2163 54.5952 20.8144 54.5952 21.4125C54.5952 21.9975 54.5952 22.5825 54.5952 23.2013C53.9846 23.2013 53.447 23.2013 52.7981 23.2013C52.7501 21.885 52.679 20.5744 52.6579 19.2619C52.631 17.5875 52.6368 15.9131 52.6425 14.2388C52.6445 13.9238 52.6752 13.6013 52.752 13.2956C52.871 12.825 53.232 12.6 53.7158 12.5981C55.3977 12.5906 57.0816 12.5344 58.7597 12.615C60.0154 12.675 61.7414 13.7269 61.6723 15.5494C61.6435 16.2938 61.6992 17.0363 61.344 17.7319C60.9811 18.4444 60.3782 18.8756 59.639 19.1288C59.2358 19.2675 59.2339 19.4156 59.4566 19.7306C60.2458 20.8481 61.0099 21.9806 61.8701 23.2331ZM54.6413 17.6325C55.7952 17.6325 56.9798 17.6325 58.1645 17.6325C59.3453 17.6325 59.927 16.965 59.737 15.8288C59.7139 15.6881 59.689 15.5494 59.6602 15.4088C59.5469 14.8481 59.1955 14.4675 58.5984 14.4356C57.3984 14.37 56.1965 14.3588 54.9945 14.3569C54.8774 14.3569 54.6605 14.5781 54.6566 14.7C54.6278 15.6563 54.6413 16.6125 54.6413 17.6325Z" fill="#00AFAD"/>
<path d="M94.5408 17.9794C94.5408 18.69 94.6598 19.425 94.5178 20.1075C94.1933 21.6675 93.1334 22.6669 91.5667 23.0175C89.8579 23.4 88.103 23.4731 86.4173 22.8975C84.7642 22.335 83.5699 20.6081 83.5968 18.8981C83.6141 17.8219 83.5814 16.71 83.8368 15.6769C84.2899 13.8431 86.1101 12.5869 88.032 12.5981C89.1245 12.6056 90.2208 12.6131 91.3056 12.7069C93.0509 12.8569 94.5581 14.5238 94.5907 16.2638C94.6003 16.8356 94.5926 17.4075 94.5926 17.9775C94.5754 17.9794 94.5581 17.9794 94.5408 17.9794ZM85.5917 17.9156C85.5878 17.9156 85.5859 17.9156 85.5821 17.9156C85.5821 18.2906 85.584 18.6638 85.5821 19.0388C85.5763 20.1563 86.2848 21.09 87.4195 21.2588C88.2931 21.3881 89.1936 21.3525 90.0826 21.3825C91.5322 21.4294 92.8666 20.4881 92.8051 18.7613C92.7782 17.9794 92.6726 17.1938 92.713 16.4138C92.7686 15.3375 91.4957 14.4263 90.6835 14.4413C89.8253 14.4581 88.967 14.4319 88.1107 14.4413C86.5978 14.4581 85.5917 15.4669 85.5936 16.95C85.5917 17.2744 85.5917 17.595 85.5917 17.9156Z" fill="#FCAF17"/>
<path d="M65.065 16.9875C66.985 16.9875 68.8435 16.9875 70.729 16.9875C70.729 17.61 70.729 18.1875 70.729 18.8419C70.4909 18.8419 70.297 18.8419 70.105 18.8419C68.5862 18.8419 67.0694 18.8513 65.5507 18.8363C65.1648 18.8325 65.0131 18.9525 65.0592 19.3313C65.0842 19.5413 65.0765 19.7606 65.0554 19.9725C64.9574 20.925 65.6544 21.4406 66.4992 21.405C67.8509 21.3488 69.2045 21.3863 70.5581 21.3863C70.7558 21.3863 70.9517 21.3863 71.1206 21.3863C71.1667 21.465 71.1974 21.495 71.1974 21.525C71.2819 23.2369 71.2819 23.2388 69.5232 23.2388C68.279 23.2388 67.0349 23.2594 65.7926 23.2331C64.7693 23.2125 63.5424 22.6481 63.2525 21.4444C63.1546 21.0356 63.1046 20.6063 63.1066 20.1881C63.1123 18.4425 63.1526 16.6969 63.168 14.9494C63.1776 13.8094 64.0896 12.7875 65.2397 12.7238C67.0963 12.6225 68.9606 12.6375 70.8211 12.5944C71.1514 12.5869 71.2416 12.7388 71.2109 13.02C71.1629 13.4775 71.113 13.935 71.0554 14.4919C69.7536 14.4919 68.4307 14.4938 67.1078 14.49C66.8717 14.49 66.6317 14.4563 66.3974 14.4713C65.4432 14.5313 65.0803 14.9081 65.065 15.8419C65.0611 16.2056 65.065 16.575 65.065 16.9875Z" fill="#FCAF17"/>
<path d="M77.7907 21.2475C77.9827 20.9587 78.1094 20.82 78.1785 20.6587C78.5145 19.8637 78.9216 19.0856 79.1385 18.2587C79.3325 17.5162 79.7395 16.8787 79.9833 16.1662C80.2464 15.3994 80.6381 14.6756 80.9357 13.9181C81.0451 13.6406 81.1238 13.35 81.2256 13.0687C81.3734 12.6637 81.5962 12.5662 81.9898 12.5887C82.4429 12.615 82.8979 12.5944 83.4758 12.5944C83.3184 13.0312 83.1994 13.3894 83.0592 13.7381C81.9302 16.5337 80.7974 19.3294 79.6646 22.1231C79.3997 22.7794 78.983 23.1956 78.1901 23.2481C77.2262 23.3119 76.4986 23.0269 76.1242 22.1381C75.3754 20.3606 74.6611 18.5681 73.9258 16.785C73.4554 15.6412 72.9734 14.5031 72.5011 13.3612C72.4089 13.1381 72.3379 12.9075 72.24 12.6281C72.9773 12.6281 73.6454 12.6281 74.352 12.6281C75.4752 15.4387 76.6022 18.2662 77.7907 21.2475Z" fill="#FCAF17"/>
<path d="M45.9533 14.4169C44.905 14.4169 43.9565 14.4188 43.008 14.4169C42.2323 14.415 42.2342 14.4131 42.2093 13.6838C42.2035 13.5056 42.1843 13.3275 42.1709 13.1494C42.1574 12.9806 42.144 12.8119 42.1306 12.6169C45.2832 12.6169 48.3859 12.6169 51.4867 12.6169C51.4867 13.2225 51.4867 13.8113 51.4867 14.4413C50.2061 14.4413 49.0042 14.4413 47.7485 14.4413C47.7485 17.3775 47.7485 20.2725 47.7485 23.2013C47.1283 23.2013 46.5715 23.2013 45.9533 23.2013C45.9533 20.2969 45.9533 17.3981 45.9533 14.4169Z" fill="#00AFAD"/>
<path d="M43.5014 26.6363C44.9165 26.6363 46.3795 26.5163 47.8118 26.6719C49.1578 26.8163 50.1235 28.1888 50.1446 29.5331C50.16 30.5719 50.0294 31.545 49.2384 32.3344C48.649 32.9213 47.9213 33.2475 47.113 33.2888C45.9341 33.3488 44.7494 33.3038 43.5034 33.3038C43.5014 31.0369 43.5014 28.8094 43.5014 26.6363ZM44.7936 32.1038C45.3946 32.1038 45.9744 32.085 46.5523 32.1075C47.3242 32.1375 47.9386 31.8469 48.3994 31.2656C49.2749 30.165 48.9235 28.0763 47.2666 27.7594C46.4755 27.6094 45.6442 27.6638 44.7936 27.6244C44.7936 29.1488 44.7936 30.5981 44.7936 32.1038Z" fill="#00AFAD"/>
<path d="M59.7274 29.3363C60.8218 29.3363 61.9142 29.3363 63.0509 29.3363C63.0509 30.2644 63.1315 31.1906 63.0259 32.0981C62.9376 32.8463 62.2349 33.1913 61.5629 33.2494C60.6298 33.3319 59.6506 33.3638 58.7405 33.1819C57.2659 32.8856 56.4806 31.7869 56.4845 30.3188C56.4864 29.7863 56.4749 29.2425 56.5786 28.725C56.8416 27.405 58.0032 26.5256 59.3856 26.5294C60.1901 26.5313 60.9984 26.5725 61.799 26.52C62.7302 26.4581 63.0048 26.8481 62.8282 27.7369C61.7376 27.7369 60.6278 27.7481 59.52 27.7331C58.8461 27.7238 58.368 28.0238 58.0339 28.5581C57.433 29.5219 57.8285 31.2881 58.7827 31.9106C58.9382 32.0119 59.1437 32.0888 59.328 32.0944C59.9846 32.1169 60.6451 32.0906 61.3018 32.1075C61.6166 32.1169 61.728 31.9744 61.7395 31.7006C61.7414 31.665 61.7376 31.6294 61.7376 31.5938C61.776 30.4575 61.776 30.4575 60.6317 30.4763C60.3763 30.48 60.121 30.4763 59.7907 30.4763C59.7811 30.3019 59.7677 30.1163 59.7581 29.9306C59.7466 29.7413 59.737 29.55 59.7274 29.3363Z" fill="#00AFAD"/>
<path d="M84.601 33.2756C84.4723 33.2944 84.4378 33.3038 84.4013 33.3056C83.1514 33.3431 83.1475 33.345 82.6502 32.235C82.4966 31.89 82.2797 31.7025 81.8611 31.7175C81.0758 31.7438 80.2886 31.7456 79.5053 31.7138C78.9312 31.6894 78.5933 31.8956 78.384 32.4281C77.9923 33.42 77.8195 33.4838 76.6157 33.225C76.8941 32.6025 77.1648 31.9913 77.4432 31.3838C78.096 29.9606 78.7757 28.5506 79.3997 27.1162C79.6742 26.4844 80.1254 26.3794 80.7456 26.4131C81.2966 26.4431 81.5904 26.6981 81.8016 27.1669C82.7155 29.1919 83.6525 31.2113 84.601 33.2756ZM80.7322 27.8344C80.665 27.8306 80.5958 27.825 80.5286 27.8213C80.1485 28.6875 79.7702 29.5538 79.3728 30.4594C80.2502 30.4594 80.9914 30.4594 81.8458 30.4594C81.4541 29.5369 81.0931 28.6856 80.7322 27.8344Z" fill="#00AFAD"/>
<path d="M75.8362 26.5688C75.792 26.9569 75.7498 27.3075 75.7037 27.7163C74.9568 27.7163 74.2176 27.7163 73.4323 27.7163C73.4323 29.5913 73.4323 31.4044 73.4323 33.2644C72.9408 33.2644 72.4954 33.2644 71.9731 33.2644C71.9731 31.4531 71.9731 29.6269 71.9731 27.75C71.1398 27.75 70.3795 27.75 69.5808 27.75C69.5808 27.3356 69.5808 26.9719 69.5808 26.5669C71.6333 26.5688 73.6896 26.5688 75.8362 26.5688Z" fill="#00AFAD"/>
<path d="M86.4633 33.2831C86.4633 31.0388 86.4633 28.8356 86.4633 26.5819C86.9318 26.5819 87.3792 26.5819 87.8995 26.5819C87.8995 27.225 87.8995 27.8794 87.8995 28.5319C87.8995 29.4581 87.9149 30.3863 87.8899 31.3125C87.8765 31.8131 87.9917 32.0419 88.585 32.0138C89.7293 31.9613 90.8794 31.9988 92.064 31.9988C92.0218 32.4506 91.9853 32.8538 91.945 33.2831C90.1248 33.2831 88.3238 33.2831 86.4633 33.2831Z" fill="#FCAF17"/>
<path d="M65.9846 26.5706C66.0269 26.5575 66.0595 26.5406 66.0941 26.5388C67.3171 26.4694 67.3229 26.4694 67.3325 27.6525C67.3478 29.3269 67.3325 31.0031 67.3766 32.6756C67.3901 33.1988 67.223 33.3844 66.7027 33.315C66.4896 33.2869 66.2688 33.3113 65.9846 33.3113C65.9846 31.0481 65.9846 28.8281 65.9846 26.5706Z" fill="#00AFAD"/>
<path d="M53.9443 33.2456C53.8944 33.2756 53.881 33.2906 53.8656 33.2906C52.6406 33.3994 52.6387 33.3994 52.6368 32.2069C52.6349 30.3394 52.6368 28.47 52.6368 26.565C53.0861 26.565 53.495 26.565 53.9443 26.565C53.9443 28.7906 53.9443 31.0088 53.9443 33.2456Z" fill="#00AFAD"/>
<path d="M20.951 6.37875C21.7613 6.38062 22.2682 6.9075 22.2624 7.74C22.2586 8.47125 21.7498 8.97375 21.0106 8.98125C20.2214 8.98875 19.607 8.38125 19.5936 7.61625C19.5802 6.9525 20.1926 6.24187 20.951 6.37875Z" fill="#FEAE02"/>
<path d="M30.1786 30.315C31.2326 30.3188 31.8912 31.0013 31.8835 32.085C31.8778 33.0356 31.2173 33.69 30.2534 33.6994C29.2282 33.7088 28.4294 32.9175 28.4102 31.9256C28.3968 31.0631 29.1936 30.1369 30.1786 30.315Z" fill="#FEAE02"/>
<path d="M11.2973 29.9006C12.3514 29.9044 13.0099 30.5869 13.0022 31.6706C12.9965 32.6212 12.336 33.2756 11.3722 33.285C10.3469 33.2944 9.54816 32.5031 9.52896 31.5112C9.51552 30.6487 10.3123 29.7225 11.2973 29.9006Z" fill="#00AFAD"/>
<path d="M32.3558 16.6856C32.3501 17.4131 31.8106 17.9494 31.0963 17.9362C30.3514 17.9212 29.7984 17.3662 29.8061 16.6425C29.8176 15.7875 30.2515 15.375 31.1309 15.3844C31.897 15.39 32.3635 15.8869 32.3558 16.6856Z" fill="#00AFAD"/>
<path d="M10.0857 17.265C10.0877 17.985 9.56927 18.51 8.84543 18.5213C8.12543 18.5325 7.49951 17.9494 7.49375 17.2631C7.48799 16.5019 7.98143 16.0313 8.79359 16.0294C9.58079 16.0256 10.0838 16.5056 10.0857 17.265Z" fill="#00AFAD"/>
<defs>
<linearGradient id="paint0_linear_49_991" x1="6.51766" y1="7.98549" x2="30.8164" y2="39.6335" gradientUnits="userSpaceOnUse">
<stop stop-color="#00AFAD"/>
<stop offset="0.3113" stop-color="#02AEAC"/>
<stop offset="0.4235" stop-color="#09ACA8"/>
<stop offset="0.5034" stop-color="#14A9A1"/>
<stop offset="0.5681" stop-color="#25A498"/>
<stop offset="0.6235" stop-color="#3B9D8B"/>
<stop offset="0.6725" stop-color="#57957B"/>
<stop offset="0.7169" stop-color="#778B69"/>
<stop offset="0.7576" stop-color="#9D7F53"/>
<stop offset="0.794" stop-color="#C6723B"/>
<stop offset="0.8267" stop-color="#F26522"/>
<stop offset="0.995" stop-color="#FCAF17"/>
</linearGradient>
<linearGradient id="paint1_linear_49_991" x1="21.5307" y1="22.9898" x2="2.03955" y2="57.267" gradientUnits="userSpaceOnUse">
<stop stop-color="#00AFAD"/>
<stop offset="0.5644" stop-color="#F26522"/>
<stop offset="1" stop-color="#043560"/>
</linearGradient>
<linearGradient id="paint2_linear_49_991" x1="13.1049" y1="16.4513" x2="9.75153" y2="39.6296" gradientUnits="userSpaceOnUse">
<stop stop-color="#00AFAD"/>
<stop offset="1" stop-color="#043560"/>
</linearGradient>
</defs>
</svg>
