<svg width="296" height="132" viewBox="0 0 296 132" fill="none" xmlns="http://www.w3.org/2000/svg">
<path d="M58.2528 78.5636C52.1315 84.4741 45.6373 90.6852 39.2437 96.9905C38.4918 97.733 38.0715 98.9941 37.8702 100.084C37.4381 102.483 35.5022 103.915 33.1342 103.355C31.1096 102.872 30.0677 100.12 31.4293 98.122C32.5126 96.5309 34.0163 95.2168 35.3898 93.8261C40.1554 88.9998 44.9269 84.1795 49.7339 79.3886C50.7226 78.4045 50.7699 77.7563 49.7754 76.6189C47.4429 73.9495 44.6131 72.93 41.1322 72.9948C35.4371 73.1009 29.7302 72.8004 24.047 73.0655C15.9189 73.4486 10.3422 67.5086 7.61904 61.7748C5.52336 57.367 6.32848 52.6586 9.64368 49.0463C15.4512 42.735 21.4482 36.5593 27.7115 30.7018C32.927 25.8225 42.2155 28.2798 44.027 34.9682C44.7078 37.4845 44.7256 40.3248 44.3882 42.9354C43.956 46.2884 44.7197 48.7987 47.1883 51.1795C54.1562 57.8973 60.9405 64.7979 67.8018 71.6218C69.856 73.6666 70.6315 76.2418 70.6552 79.0114C70.7203 86.5307 70.7677 94.0559 70.6315 101.575C70.5605 105.447 71.3478 108.894 74.3019 111.558C76.8594 113.856 79.2806 116.449 82.217 118.134C85.5736 120.061 89.2558 119.425 92.127 116.679C97.8517 111.198 103.411 105.541 109.117 100.031C111.041 98.175 112.817 96.3659 113.409 93.5962C114.73 87.4088 109.384 82.1759 104.707 82.0934C100.155 82.0109 95.6021 81.893 91.0437 81.7987C89.617 81.7693 88.6934 81.1741 88.5277 79.6773C88.3797 78.2984 89.1374 77.3496 90.3806 77.3673C96.2651 77.4557 102.191 76.7191 108.016 78.0037C113.054 79.1175 117.778 84.6568 118.406 89.8661C119.004 94.8338 117.636 98.9882 113.978 102.542C108.448 107.916 103.044 113.42 97.6978 118.977C94.2346 122.577 90.1438 124.457 85.1355 124.221C82.3413 124.092 79.6536 123.337 77.5816 121.452C74.6749 118.806 71.8629 116.03 69.2758 113.084C66.9434 110.426 66.2626 107.002 66.2211 103.567C66.1264 95.6529 66.1146 87.7388 66.2211 79.8246C66.2507 77.4911 65.4574 75.7998 63.8235 74.197C56.755 67.2846 49.8523 60.2073 42.7187 53.3716C39.8475 50.6196 39.0779 47.5318 39.587 43.8016C39.8179 42.0868 39.883 40.3189 39.735 38.5982C39.5574 36.5239 38.7819 34.6087 36.5382 33.9134C34.0814 33.1532 31.7549 33.4243 29.8368 35.3277C25.7698 39.3643 21.7027 43.4127 17.6534 47.467C16.3866 48.7398 15.1197 50.0186 13.9298 51.368C10.656 55.0805 11.0112 59.9009 14.2613 63.578C17.2035 66.9075 20.6845 68.0095 24.9824 67.9446C31.453 67.8504 37.9354 68.0095 44.4059 68.2688C47.4547 68.3866 50.0595 69.8775 52.1789 72.0579C54.1384 74.0673 56.0091 76.1534 58.2528 78.5636Z" fill="url(#paint0_linear_6_1621)"/>
<path d="M68.2162 66.8898C68.2162 59.0995 68.2813 51.4741 68.1866 43.8605C68.1451 40.7079 69.2285 38.115 71.2176 35.752C72.2181 34.5616 73.2778 33.3359 73.9349 31.9511C77.4218 24.6204 76.001 15.4629 66.1856 12.8877C60.4669 11.385 53.9786 16.5943 53.6885 22.4754C53.4813 26.7771 54.7778 30.2127 58.0575 32.9588C59.6677 34.3082 60.2952 35.9995 60.2123 38.1386C60.0703 41.8923 60.1235 45.6579 60.2005 49.4175C60.236 51.038 59.3303 51.6214 57.9864 51.7746C56.6899 51.9279 55.3698 50.7964 55.3698 49.5C55.3757 46.5889 55.6362 43.672 55.4941 40.7727C55.4231 39.2936 55.0264 37.6377 54.2213 36.4296C52.3447 33.607 50.2016 31.0318 49.1538 27.6611C46.3359 18.5979 54.0911 8.83929 63.1783 7.78446C71.336 6.84161 79.3931 14.9266 80.2338 21.4971C81.0626 27.9262 79.8963 33.5186 75.5096 38.3625C73.7455 40.3071 72.8811 42.4934 72.9936 45.21C73.1712 49.4646 73.041 53.7311 73.041 58.3688C73.7395 57.9032 74.2605 57.6557 74.6571 57.2786C76.3503 55.6345 77.996 53.9432 79.6773 52.2814C80.7903 51.1854 81.1395 49.8889 81.104 48.3273C80.9975 43.0532 83.3063 38.9046 87.6279 36.0171C91.5528 33.3948 95.8448 33.8368 100.178 35.1096C103.227 36.0054 105.08 38.3743 107.205 40.3896C110.219 43.2477 113.031 46.3179 116.014 49.2054C120.952 53.9904 120.271 63.578 115.896 68.2629C112.829 71.5452 109.07 73.0066 104.66 73.0125C99.0179 73.0243 93.3821 73.0537 87.7403 73.0007C83.9634 72.9654 81.2579 74.633 79.6477 77.9448C78.4104 80.4846 78.884 82.9537 81.3882 85.4818C84.508 88.6286 87.6338 91.7636 90.8365 94.822C91.4048 95.37 92.352 95.753 93.1453 95.8002C95.7797 95.9534 97.4195 97.3618 97.7215 99.9782C97.9346 101.846 96.4072 104.292 94.5661 104.622C92.1093 105.058 89.0309 104.604 88.6224 101.929C88.0067 97.898 85.0763 95.812 82.6077 93.2191C80.216 90.7088 77.629 88.2986 75.6931 85.4582C72.9995 81.51 74.0178 75.8293 77.3211 72.3407C80.3167 69.1821 83.9219 67.7443 88.2435 67.8798C92.9677 68.0271 97.6978 68.2629 102.416 68.1745C104.589 68.1332 106.892 67.7443 108.892 66.9311C114.493 64.6446 116.316 56.3888 112.03 52.3698C108.099 48.6868 104.476 44.6738 100.492 41.0555C97.8813 38.6807 94.5661 38.4096 91.3693 39.8475C88.0304 41.3502 86.1005 44.108 86.284 47.7911C86.4379 50.9496 85.5026 53.2891 83.1346 55.4518C79.7779 58.5161 76.7647 61.9516 73.5738 65.1986C71.3123 67.5086 71.2887 67.485 68.2162 66.8898Z" fill="url(#paint1_linear_6_1621)"/>
<path d="M28.1496 77.3143C30.7426 77.3143 33.3414 77.2554 35.9344 77.3379C37.1598 77.3791 38.6221 77.2789 38.5333 79.2825C38.4563 80.9914 37.8406 81.7339 35.893 81.7575C31.2162 81.8105 26.5334 81.7929 21.8507 81.787C17.3515 81.7811 12.4616 85.9827 12.1834 90.4436C12.0058 93.2662 12.799 95.977 14.877 98.0984C20.2938 103.638 25.7816 109.112 31.1629 114.693C34.1406 117.781 37.6808 118.747 41.7182 117.698C43.1154 117.333 44.5421 116.519 45.5899 115.529C48.2006 113.072 50.5923 110.391 53.0787 107.804C54.6416 106.183 55.2218 104.156 55.3579 102.005C55.5355 99.2121 55.5651 96.4071 55.7013 93.608C55.7486 92.6652 55.8434 91.7046 56.0624 90.7913C56.3702 89.5125 57.2878 88.882 58.5843 89.1471C59.7091 89.377 60.313 90.0134 60.2538 91.3746C60.1176 94.5096 60.0998 97.6623 60.2005 100.803C60.3426 105.164 58.9514 108.935 55.9618 112.059C53.2563 114.881 50.4325 117.592 47.579 120.267C44.7197 122.943 41.1144 123.007 37.4677 122.972C34.0992 122.937 31.3997 121.546 29.1027 119.266C23.3366 113.544 17.5587 107.822 11.8755 102.023C7.82624 97.8921 6.05024 93.0246 7.98016 87.3321C9.76208 82.0816 15.8715 76.8605 21.7323 77.3084C23.8517 77.4498 26.0066 77.3143 28.1496 77.3143Z" fill="url(#paint2_linear_6_1621)"/>
<path d="M190.766 73.0184C188.291 73.0184 186.279 73.0832 184.272 72.9713C183.81 72.9418 183.254 72.3702 182.958 71.9105C181.111 69.0525 179.305 66.165 177.535 63.2598C176.836 62.1107 175.972 61.4566 174.545 61.5155C172.586 61.5921 170.62 61.5332 168.335 61.5332C168.335 63.5368 168.335 65.4166 168.335 67.2964C168.335 69.135 168.335 70.9736 168.335 72.9182C166.453 72.9182 164.795 72.9182 162.794 72.9182C162.646 68.7814 162.427 64.6623 162.362 60.5373C162.279 55.275 162.297 50.0127 162.315 44.7504C162.32 43.7604 162.415 42.7468 162.652 41.7863C163.019 40.3071 164.132 39.6 165.624 39.5941C170.81 39.5705 176.002 39.3938 181.176 39.6471C185.047 39.8357 190.369 43.1416 190.156 48.8695C190.067 51.2089 190.239 53.5425 189.144 55.7288C188.025 57.968 186.166 59.3234 183.887 60.1189C182.644 60.555 182.638 61.0205 183.325 62.0105C185.758 65.5227 188.114 69.082 190.766 73.0184ZM168.477 55.4164C172.035 55.4164 175.688 55.4164 179.34 55.4164C182.981 55.4164 184.775 53.3186 184.189 49.7475C184.118 49.3055 184.041 48.8695 183.952 48.4275C183.603 46.6655 182.52 45.4693 180.678 45.3691C176.978 45.1629 173.272 45.1275 169.567 45.1216C169.205 45.1216 168.536 45.817 168.525 46.2C168.436 49.2054 168.477 52.2107 168.477 55.4164Z" fill="#00AFAD"/>
<path d="M291.501 56.5066C291.501 58.74 291.868 61.05 291.43 63.195C290.429 68.0979 287.161 71.2388 282.331 72.3407C277.062 73.5429 271.651 73.7727 266.453 71.9636C261.356 70.1957 257.674 64.7684 257.757 59.3941C257.81 56.0116 257.709 52.5171 258.497 49.2702C259.894 43.507 265.506 39.5588 271.432 39.5941C274.8 39.6177 278.181 39.6413 281.526 39.9359C286.907 40.4073 291.554 45.6461 291.655 51.1146C291.684 52.912 291.661 54.7093 291.661 56.5007C291.607 56.5066 291.554 56.5066 291.501 56.5066ZM263.908 56.3063C263.896 56.3063 263.89 56.3063 263.878 56.3063C263.878 57.4848 263.884 58.6575 263.878 59.8361C263.86 63.3482 266.045 66.2829 269.544 66.8132C272.237 67.2198 275.014 67.1079 277.755 67.2021C282.224 67.3495 286.339 64.3913 286.149 58.9639C286.066 56.5066 285.741 54.0375 285.865 51.5861C286.037 48.2036 282.112 45.3396 279.608 45.3868C276.961 45.4398 274.315 45.3573 271.675 45.3868C267.01 45.4398 263.908 48.6102 263.914 53.2714C263.908 54.2909 263.908 55.2986 263.908 56.3063Z" fill="#FCAF17"/>
<path d="M200.617 53.3893C206.537 53.3893 212.268 53.3893 218.081 53.3893C218.081 55.3457 218.081 57.1607 218.081 59.2173C217.347 59.2173 216.749 59.2173 216.157 59.2173C211.474 59.2173 206.797 59.2468 202.115 59.1996C200.925 59.1879 200.457 59.565 200.599 60.7554C200.676 61.4154 200.652 62.1048 200.587 62.7707C200.285 65.7643 202.434 67.3848 205.039 67.2729C209.207 67.0961 213.38 67.2139 217.554 67.2139C218.164 67.2139 218.768 67.2139 219.289 67.2139C219.431 67.4614 219.525 67.5557 219.525 67.65C219.786 73.0302 219.786 73.0361 214.363 73.0361C210.527 73.0361 206.691 73.1009 202.861 73.0184C199.705 72.9536 195.922 71.1798 195.028 67.3966C194.727 66.112 194.573 64.7625 194.579 63.4484C194.596 57.9621 194.721 52.4759 194.768 46.9838C194.798 43.4009 197.61 40.1893 201.156 39.9889C206.88 39.6707 212.629 39.7179 218.365 39.5823C219.383 39.5588 219.662 40.0361 219.567 40.92C219.419 42.3579 219.265 43.7957 219.087 45.5459C215.074 45.5459 210.995 45.5518 206.916 45.54C206.188 45.54 205.448 45.4339 204.725 45.4811C201.783 45.6696 200.664 46.8541 200.617 49.7888C200.605 50.932 200.617 52.0929 200.617 53.3893Z" fill="#FCAF17"/>
<path d="M239.855 66.7779C240.447 65.8704 240.837 65.4343 241.051 64.9275C242.087 62.4289 243.342 59.9834 244.011 57.3846C244.608 55.0511 245.864 53.0475 246.615 50.8082C247.426 48.398 248.634 46.1234 249.552 43.7427C249.889 42.8705 250.132 41.9571 250.446 41.0732C250.901 39.8004 251.588 39.4939 252.802 39.5646C254.199 39.6471 255.602 39.5823 257.384 39.5823C256.898 40.9554 256.531 42.0809 256.099 43.177C252.618 51.9632 249.125 60.7495 245.633 69.5298C244.816 71.5923 243.531 72.9005 241.086 73.0655C238.114 73.2659 235.871 72.3702 234.716 69.577C232.407 63.9905 230.205 58.357 227.938 52.7529C226.487 49.1582 225.001 45.5813 223.545 41.9925C223.261 41.2913 223.042 40.5664 222.74 39.6884C225.013 39.6884 227.073 39.6884 229.252 39.6884C232.715 48.5218 236.19 57.4082 239.855 66.7779Z" fill="#FCAF17"/>
<path d="M141.689 45.3102C138.457 45.3102 135.532 45.3161 132.608 45.3102C130.216 45.3043 130.222 45.2984 130.145 43.0061C130.128 42.4463 130.068 41.8864 130.027 41.3266C129.985 40.7963 129.944 40.2659 129.903 39.653C139.623 39.653 149.19 39.653 158.751 39.653C158.751 41.5564 158.751 43.4068 158.751 45.3868C154.802 45.3868 151.096 45.3868 147.224 45.3868C147.224 54.615 147.224 63.7136 147.224 72.9182C145.312 72.9182 143.596 72.9182 141.689 72.9182C141.689 63.7902 141.689 54.6798 141.689 45.3102Z" fill="#00AFAD"/>
<path d="M134.129 83.7139C138.492 83.7139 143.004 83.3368 147.42 83.8259C151.57 84.2796 154.548 88.5932 154.613 92.8184C154.66 96.083 154.257 99.1414 151.818 101.622C150.001 103.467 147.757 104.492 145.265 104.622C141.63 104.81 137.977 104.669 134.135 104.669C134.129 97.5445 134.129 90.5438 134.129 83.7139ZM138.114 100.898C139.967 100.898 141.754 100.839 143.536 100.909C145.916 101.004 147.811 100.09 149.231 98.2634C151.931 94.8043 150.848 88.2396 145.739 87.2438C143.3 86.7723 140.736 86.9432 138.114 86.8195C138.114 91.6104 138.114 96.1655 138.114 100.898Z" fill="#00AFAD"/>
<path d="M184.159 92.1996C187.534 92.1996 190.902 92.1996 194.407 92.1996C194.407 95.1166 194.656 98.0277 194.33 100.88C194.058 103.231 191.891 104.315 189.819 104.498C186.942 104.757 183.923 104.858 181.117 104.286C176.57 103.355 174.149 99.9016 174.161 95.2875C174.166 93.6139 174.131 91.905 174.451 90.2786C175.262 86.13 178.843 83.3663 183.106 83.378C185.586 83.3839 188.078 83.5136 190.547 83.3486C193.418 83.1541 194.265 84.3798 193.72 87.173C190.358 87.173 186.936 87.2084 183.52 87.1613C181.442 87.1318 179.968 88.0746 178.938 89.7541C177.085 92.783 178.305 98.3341 181.247 100.291C181.726 100.609 182.36 100.85 182.928 100.868C184.953 100.939 186.989 100.856 189.014 100.909C189.985 100.939 190.328 100.491 190.364 99.6305C190.369 99.5186 190.358 99.4066 190.358 99.2946C190.476 95.7236 190.476 95.7236 186.948 95.7825C186.16 95.7943 185.373 95.7825 184.355 95.7825C184.325 95.2345 184.284 94.6511 184.254 94.0677C184.219 93.4725 184.189 92.8714 184.159 92.1996Z" fill="#00AFAD"/>
<path d="M260.853 104.581C260.456 104.639 260.35 104.669 260.237 104.675C256.383 104.793 256.372 104.799 254.838 101.31C254.365 100.226 253.696 99.6364 252.405 99.6836C249.984 99.7661 247.557 99.772 245.141 99.6718C243.371 99.5952 242.329 100.243 241.684 101.917C240.476 105.034 239.944 105.235 236.232 104.421C237.09 102.465 237.925 100.544 238.783 98.6347C240.796 94.162 242.892 89.7305 244.816 85.2225C245.662 83.2366 247.053 82.9066 248.966 83.0127C250.665 83.107 251.57 83.9084 252.222 85.3816C255.04 91.7459 257.928 98.0925 260.853 104.581ZM248.924 87.4795C248.717 87.4677 248.504 87.45 248.297 87.4382C247.124 90.1607 245.958 92.8832 244.733 95.7295C247.438 95.7295 249.723 95.7295 252.358 95.7295C251.15 92.8302 250.037 90.1548 248.924 87.4795Z" fill="#00AFAD"/>
<path d="M233.828 83.5018C233.692 84.7216 233.562 85.8236 233.42 87.1082C231.117 87.1082 228.838 87.1082 226.416 87.1082C226.416 93.0011 226.416 98.6995 226.416 104.545C224.901 104.545 223.527 104.545 221.917 104.545C221.917 98.8527 221.917 93.113 221.917 87.2143C219.348 87.2143 217.004 87.2143 214.541 87.2143C214.541 85.912 214.541 84.7688 214.541 83.4959C220.869 83.5018 227.21 83.5018 233.828 83.5018Z" fill="#00AFAD"/>
<path d="M266.595 104.604C266.595 97.5504 266.595 90.6263 266.595 83.543C268.04 83.543 269.419 83.543 271.024 83.543C271.024 85.5643 271.024 87.6209 271.024 89.6716C271.024 92.5827 271.071 95.4996 270.994 98.4107C270.952 99.9841 271.308 100.703 273.137 100.615C276.665 100.45 280.211 100.568 283.864 100.568C283.734 101.988 283.621 103.255 283.497 104.604C277.885 104.604 272.332 104.604 266.595 104.604Z" fill="#FCAF17"/>
<path d="M203.453 83.5077C203.583 83.4664 203.684 83.4134 203.79 83.4075C207.561 83.1895 207.579 83.1895 207.608 86.9079C207.656 92.1702 207.608 97.4384 207.745 102.695C207.786 104.339 207.271 104.922 205.667 104.704C205.01 104.616 204.329 104.693 203.453 104.693C203.453 97.5798 203.453 90.6027 203.453 83.5077Z" fill="#00AFAD"/>
<path d="M166.328 104.486C166.174 104.581 166.133 104.628 166.086 104.628C162.309 104.969 162.303 104.969 162.297 101.222C162.291 95.3523 162.297 89.4771 162.297 83.49C163.682 83.49 164.943 83.49 166.328 83.49C166.328 90.4848 166.328 97.4561 166.328 104.486Z" fill="#00AFAD"/>
<path d="M64.599 20.0475C67.0973 20.0534 68.6602 21.7093 68.6424 24.3257C68.6306 26.6239 67.0618 28.2032 64.7826 28.2268C62.3494 28.2504 60.455 26.3411 60.4136 23.9368C60.3722 21.8507 62.2606 19.6173 64.599 20.0475Z" fill="#FEAE02"/>
<path d="M93.0505 95.2757C96.3006 95.2875 98.3312 97.4325 98.3075 100.839C98.2898 103.826 96.2533 105.883 93.2814 105.912C90.1202 105.942 87.6574 103.455 87.5982 100.338C87.5568 97.627 90.0136 94.7159 93.0505 95.2757Z" fill="#FEAE02"/>
<path d="M34.8333 93.9734C38.0834 93.9852 40.1139 96.1302 40.0902 99.5362C40.0725 102.524 38.036 104.581 35.0642 104.61C31.9029 104.639 29.4402 102.153 29.381 99.0354C29.3395 96.3246 31.7963 93.4136 34.8333 93.9734Z" fill="#00AFAD"/>
<path d="M99.7639 52.4405C99.7461 54.727 98.0826 56.4123 95.8803 56.3711C93.5834 56.3239 91.8784 54.5796 91.9021 52.305C91.9376 49.6179 93.2755 48.3214 95.9869 48.3509C98.349 48.3686 99.7875 49.9302 99.7639 52.4405Z" fill="#00AFAD"/>
<path d="M31.0978 54.2614C31.1037 56.5243 29.5053 58.1743 27.2734 58.2096C25.0534 58.245 23.1235 56.4123 23.1058 54.2555C23.088 51.863 24.6094 50.3839 27.1136 50.378C29.5408 50.3663 31.0918 51.8748 31.0978 54.2614Z" fill="#00AFAD"/>
<defs>
<linearGradient id="paint0_linear_6_1621" x1="20.0961" y1="25.0973" x2="96.8285" y2="123.145" gradientUnits="userSpaceOnUse">
<stop stop-color="#00AFAD"/>
<stop offset="0.3113" stop-color="#02AEAC"/>
<stop offset="0.4235" stop-color="#09ACA8"/>
<stop offset="0.5034" stop-color="#14A9A1"/>
<stop offset="0.5681" stop-color="#25A498"/>
<stop offset="0.6235" stop-color="#3B9D8B"/>
<stop offset="0.6725" stop-color="#57957B"/>
<stop offset="0.7169" stop-color="#778B69"/>
<stop offset="0.7576" stop-color="#9D7F53"/>
<stop offset="0.794" stop-color="#C6723B"/>
<stop offset="0.8267" stop-color="#F26522"/>
<stop offset="0.995" stop-color="#FCAF17"/>
</linearGradient>
<linearGradient id="paint1_linear_6_1621" x1="66.3862" y1="72.2536" x2="4.53498" y2="178.966" gradientUnits="userSpaceOnUse">
<stop stop-color="#00AFAD"/>
<stop offset="0.5644" stop-color="#F26522"/>
<stop offset="1" stop-color="#043560"/>
</linearGradient>
<linearGradient id="paint2_linear_6_1621" x1="40.4067" y1="51.7042" x2="29.6728" y2="124.492" gradientUnits="userSpaceOnUse">
<stop stop-color="#00AFAD"/>
<stop offset="1" stop-color="#043560"/>
</linearGradient>
</defs>
</svg>
