<svg width="224" height="224" viewBox="0 0 224 224" fill="none" xmlns="http://www.w3.org/2000/svg">
<path d="M104.05 133.36C93.71 143.39 82.74 153.93 71.94 164.63C70.67 165.89 69.96 168.03 69.62 169.88C68.89 173.95 65.62 176.38 61.62 175.43C58.2 174.61 56.44 169.94 58.74 166.55C60.57 163.85 63.11 161.62 65.43 159.26C73.48 151.07 81.54 142.89 89.66 134.76C91.33 133.09 91.41 131.99 89.73 130.06C85.79 125.53 81.01 123.8 75.13 123.91C65.51 124.09 55.87 123.58 46.27 124.03C32.54 124.68 23.12 114.6 18.52 104.87C14.98 97.39 16.34 89.4 21.94 83.27C31.75 72.55 41.87 62.08 52.45 52.13C61.26 43.85 76.95 48.02 80.01 59.37C81.16 63.64 81.19 68.46 80.62 72.89C79.89 78.58 81.18 82.84 85.35 86.88C97.12 98.28 108.58 109.99 120.17 121.57C123.64 125.04 124.95 129.41 124.99 134.11C125.1 146.87 125.18 159.64 124.95 172.4C124.83 178.97 126.16 184.82 131.15 189.34C135.47 193.24 139.56 197.64 144.52 200.5C150.19 203.77 156.41 202.69 161.26 198.03C170.93 188.73 180.32 179.13 189.96 169.78C193.21 166.63 196.21 163.56 197.21 158.86C199.44 148.36 190.41 139.48 182.51 139.34C174.82 139.2 167.13 139 159.43 138.84C157.02 138.79 155.46 137.78 155.18 135.24C154.93 132.9 156.21 131.29 158.31 131.32C168.25 131.47 178.26 130.22 188.1 132.4C196.61 134.29 204.59 143.69 205.65 152.53C206.66 160.96 204.35 168.01 198.17 174.04C188.83 183.16 179.7 192.5 170.67 201.93C164.82 208.04 157.91 211.23 149.45 210.83C144.73 210.61 140.19 209.33 136.69 206.13C131.78 201.64 127.03 196.93 122.66 191.93C118.72 187.42 117.57 181.61 117.5 175.78C117.34 162.35 117.32 148.92 117.5 135.49C117.55 131.53 116.21 128.66 113.45 125.94C101.51 114.21 89.85 102.2 77.8 90.6C72.95 85.93 71.65 80.69 72.51 74.36C72.9 71.45 73.01 68.45 72.76 65.53C72.46 62.01 71.15 58.76 67.36 57.58C63.21 56.29 59.28 56.75 56.04 59.98C49.17 66.83 42.3 73.7 35.46 80.58C33.32 82.74 31.18 84.91 29.17 87.2C23.64 93.5 24.24 101.68 29.73 107.92C34.7 113.57 40.58 115.44 47.84 115.33C58.77 115.17 69.72 115.44 80.65 115.88C85.8 116.08 90.2 118.61 93.78 122.31C97.1 125.73 100.26 129.27 104.05 133.36Z" fill="url(#paint0_linear_6_1644)"/>
<path d="M120.88 113.55C120.88 100.33 120.99 87.39 120.83 74.47C120.76 69.12 122.59 64.72 125.95 60.71C127.64 58.69 129.43 56.61 130.54 54.26C136.43 41.82 134.03 26.28 117.45 21.91C107.79 19.36 96.83 28.2 96.34 38.18C95.99 45.48 98.18 51.31 103.72 55.97C106.44 58.26 107.5 61.13 107.36 64.76C107.12 71.13 107.21 77.52 107.34 83.9C107.4 86.65 105.87 87.64 103.6 87.9C101.41 88.16 99.18 86.24 99.18 84.04C99.19 79.1 99.63 74.15 99.39 69.23C99.27 66.72 98.6 63.91 97.24 61.86C94.07 57.07 90.45 52.7 88.68 46.98C83.91 31.59 97.01 15.03 112.36 13.24C126.14 11.64 139.75 25.36 141.17 36.51C142.57 47.42 140.6 56.91 133.19 65.13C130.21 68.43 128.75 72.14 128.94 76.75C129.24 83.97 129.02 91.21 129.02 99.08C130.2 98.29 131.08 97.87 131.75 97.23C134.61 94.44 137.39 91.57 140.23 88.75C142.11 86.89 142.7 84.69 142.64 82.04C142.46 73.09 146.36 66.05 153.66 61.15C160.29 56.7 167.54 57.45 174.86 59.61C180.01 61.13 183.14 65.15 186.73 68.57C191.82 73.42 196.57 78.63 201.61 83.53C209.95 91.65 208.8 107.92 201.41 115.87C196.23 121.44 189.88 123.92 182.43 123.93C172.9 123.95 163.38 124 153.85 123.91C147.47 123.85 142.9 126.68 140.18 132.3C138.09 136.61 138.89 140.8 143.12 145.09C148.39 150.43 153.67 155.75 159.08 160.94C160.04 161.87 161.64 162.52 162.98 162.6C167.43 162.86 170.2 165.25 170.71 169.69C171.07 172.86 168.49 177.01 165.38 177.57C161.23 178.31 156.03 177.54 155.34 173C154.3 166.16 149.35 162.62 145.18 158.22C141.14 153.96 136.77 149.87 133.5 145.05C128.95 138.35 130.67 128.71 136.25 122.79C141.31 117.43 147.4 114.99 154.7 115.22C162.68 115.47 170.67 115.87 178.64 115.72C182.31 115.65 186.2 114.99 189.58 113.61C199.04 109.73 202.12 95.72 194.88 88.9C188.24 82.65 182.12 75.84 175.39 69.7C171 65.66 165.4 65.21 160 67.65C154.36 70.2 151.1 74.88 151.41 81.13C151.67 86.49 150.09 90.46 146.09 94.13C140.42 99.33 135.33 105.16 129.94 110.67C126.1 114.6 126.07 114.56 120.88 113.55Z" fill="url(#paint1_linear_6_1644)"/>
<path d="M53.2 131.24C57.58 131.24 61.97 131.14 66.35 131.28C68.42 131.35 70.89 131.18 70.74 134.58C70.61 137.48 69.57 138.74 66.28 138.78C58.38 138.87 50.47 138.84 42.56 138.83C34.96 138.82 26.7 145.95 26.23 153.52C25.93 158.31 27.27 162.91 30.78 166.51C39.93 175.91 49.2 185.2 58.29 194.67C63.32 199.91 69.3 201.55 76.12 199.77C78.48 199.15 80.89 197.77 82.66 196.09C87.07 191.92 91.11 187.37 95.31 182.98C97.95 180.23 98.93 176.79 99.16 173.14C99.46 168.4 99.51 163.64 99.74 158.89C99.82 157.29 99.98 155.66 100.35 154.11C100.87 151.94 102.42 150.87 104.61 151.32C106.51 151.71 107.53 152.79 107.43 155.1C107.2 160.42 107.17 165.77 107.34 171.1C107.58 178.5 105.23 184.9 100.18 190.2C95.61 194.99 90.84 199.59 86.02 204.13C81.19 208.67 75.1 208.78 68.94 208.72C63.25 208.66 58.69 206.3 54.81 202.43C45.07 192.72 35.31 183.01 25.71 173.17C18.87 166.16 15.87 157.9 19.13 148.24C22.14 139.33 32.46 130.47 42.36 131.23C45.94 131.47 49.58 131.24 53.2 131.24Z" fill="url(#paint2_linear_6_1644)"/>
<path d="M114.76 34.06C118.98 34.07 121.62 36.88 121.59 41.32C121.57 45.22 118.92 47.9 115.07 47.94C110.96 47.98 107.76 44.74 107.69 40.66C107.63 37.12 110.82 33.33 114.76 34.06Z" fill="#FEAE02"/>
<path d="M162.83 161.72C168.32 161.74 171.75 165.38 171.71 171.16C171.68 176.23 168.24 179.72 163.22 179.77C157.88 179.82 153.72 175.6 153.62 170.31C153.55 165.71 157.7 160.77 162.83 161.72Z" fill="#FEAE02"/>
<path d="M64.49 159.51C69.98 159.53 73.41 163.17 73.37 168.95C73.34 174.02 69.9 177.51 64.88 177.56C59.54 177.61 55.38 173.39 55.28 168.1C55.21 163.5 59.36 158.56 64.49 159.51Z" fill="#00AFAD"/>
<path d="M174.17 89.03C174.14 92.91 171.33 95.77 167.61 95.7C163.73 95.62 160.85 92.66 160.89 88.8C160.95 84.24 163.21 82.04 167.79 82.09C171.77 82.12 174.21 84.77 174.17 89.03Z" fill="#00AFAD"/>
<path d="M58.17 92.12C58.18 95.96 55.48 98.76 51.71 98.82C47.96 98.88 44.7 95.77 44.67 92.11C44.64 88.05 47.21 85.54 51.44 85.53C55.55 85.51 58.16 88.07 58.17 92.12Z" fill="#00AFAD"/>
<defs>
<linearGradient id="paint0_linear_6_1644" x1="39.5941" y1="42.63" x2="169.949" y2="208.433" gradientUnits="userSpaceOnUse">
<stop stop-color="#00AFAD"/>
<stop offset="0.3113" stop-color="#02AEAC"/>
<stop offset="0.4235" stop-color="#09ACA8"/>
<stop offset="0.5034" stop-color="#14A9A1"/>
<stop offset="0.5681" stop-color="#25A498"/>
<stop offset="0.6235" stop-color="#3B9D8B"/>
<stop offset="0.6725" stop-color="#57957B"/>
<stop offset="0.7169" stop-color="#778B69"/>
<stop offset="0.7576" stop-color="#9D7F53"/>
<stop offset="0.794" stop-color="#C6723B"/>
<stop offset="0.8267" stop-color="#F26522"/>
<stop offset="0.995" stop-color="#FCAF17"/>
</linearGradient>
<linearGradient id="paint1_linear_6_1644" x1="117.787" y1="122.653" x2="12.5879" y2="303.321" gradientUnits="userSpaceOnUse">
<stop stop-color="#00AFAD"/>
<stop offset="0.5644" stop-color="#F26522"/>
<stop offset="1" stop-color="#043560"/>
</linearGradient>
<linearGradient id="paint2_linear_6_1644" x1="73.9024" y1="87.7811" x2="55.6069" y2="211.275" gradientUnits="userSpaceOnUse">
<stop stop-color="#00AFAD"/>
<stop offset="1" stop-color="#043560"/>
</linearGradient>
</defs>
</svg>
